<?xml version="1.0" standalone="no"?>
<!DOCTYPE svg PUBLIC "-//W3C//DTD SVG 20010904//EN"
 "http://www.w3.org/TR/2001/REC-SVG-20010904/DTD/svg10.dtd">
<svg version="1.0" xmlns="http://www.w3.org/2000/svg"
 width="300.000000pt" height="300.000000pt" viewBox="0 0 300.000000 300.000000"
 preserveAspectRatio="xMidYMid meet">
<metadata>
Created by potrace 1.11, written by Peter Selinger 2001-2013
</metadata>
<g transform="translate(0.000000,300.000000) scale(0.100000,-0.100000)"
fill="#000000" stroke="none">
<path d="M1200 2792 c5 -2 7 -8 4 -13 -3 -6 -12 -5 -22 3 -12 10 -14 10 -8 1
4 -8 2 -13 -4 -13 -6 0 -8 -6 -4 -12 4 -7 4 -10 -1 -6 -4 4 -14 0 -22 -10 -14
-16 -14 -16 -9 1 3 9 9 25 13 34 5 14 3 13 -14 -3 -11 -10 -18 -22 -16 -26 2
-4 -2 -10 -8 -14 -7 -4 -9 -3 -6 3 4 6 0 16 -7 22 -12 10 -14 8 -9 -11 4 -18
3 -20 -6 -8 -6 8 -11 11 -11 6 0 -5 -7 -3 -15 4 -13 11 -14 10 -9 -4 4 -11 1
-16 -11 -16 -9 0 -13 -4 -10 -10 3 -5 2 -10 -4 -10 -5 0 -11 6 -14 13 -3 9 -8
9 -18 -2 -9 -8 -9 -11 -2 -7 9 5 11 2 7 -9 -6 -14 -8 -14 -21 2 -8 10 -12 13
-9 8 2 -6 -5 -17 -17 -25 -19 -11 -20 -11 -10 1 9 11 7 14 -12 14 -15 0 -21
-3 -15 -9 16 -16 12 -30 -4 -17 -10 8 -16 9 -21 1 -3 -6 -10 -8 -15 -5 -5 3
-7 -7 -4 -22 3 -20 2 -24 -5 -14 -10 16 -45 25 -35 9 3 -5 -2 -8 -12 -6 -13 2
-19 -3 -18 -13 1 -11 -5 -15 -17 -12 -9 3 -26 0 -36 -7 -16 -10 -16 -11 0 -6
25 8 21 -3 -5 -13 -15 -5 -29 -5 -38 2 -8 6 -12 8 -8 3 3 -4 -3 -18 -14 -31
-17 -19 -25 -22 -40 -14 -10 5 -18 6 -17 2 4 -25 -3 -35 -21 -30 -11 3 -23 0
-27 -5 -3 -7 -1 -8 5 -4 7 4 12 2 12 -4 0 -6 5 -8 12 -4 6 4 8 3 4 -4 -3 -6
-15 -9 -25 -7 -11 2 -22 -3 -25 -12 -4 -9 -13 -13 -22 -9 -14 5 -15 4 -5 -8
10 -12 8 -13 -10 -9 -16 5 -20 3 -15 -6 6 -8 2 -11 -10 -9 -12 2 -18 -2 -16
-10 1 -8 -6 -16 -17 -19 -22 -6 -34 -29 -24 -46 4 -7 -1 -6 -10 2 -15 12 -17
11 -17 -4 0 -14 -3 -15 -15 -5 -13 11 -14 10 -9 -5 6 -14 4 -16 -7 -10 -12 7
-12 6 -1 -7 10 -13 10 -18 1 -24 -8 -4 -9 -3 -5 4 4 7 2 12 -3 12 -6 0 -11 -4
-11 -10 0 -5 -8 -10 -17 -10 -15 0 -16 -2 -3 -10 13 -9 7 -14 -12 -11 -4 0 -4
-7 -1 -17 6 -15 4 -15 -9 -4 -14 11 -16 10 -11 -8 4 -14 1 -20 -7 -18 -7 2
-15 -3 -17 -10 -3 -8 2 -10 14 -6 14 5 15 4 3 -4 -9 -7 -19 -7 -25 -2 -8 7
-11 3 -11 -13 1 -14 -5 -22 -16 -22 -9 0 -20 -4 -25 -9 -4 -5 -3 -6 4 -2 7 4
13 2 13 -4 0 -6 5 -8 12 -4 7 5 8 3 4 -5 -5 -7 -10 -10 -13 -7 -7 6 -43 -26
-43 -39 0 -5 4 -3 10 5 5 8 12 11 17 7 10 -10 -18 -28 -34 -22 -8 2 -10 -2 -6
-12 5 -12 3 -14 -8 -8 -11 7 -11 5 1 -10 12 -15 12 -17 1 -10 -11 6 -13 4 -8
-9 4 -9 3 -14 -2 -11 -5 3 -12 1 -16 -5 -3 -5 -1 -10 4 -10 6 0 11 -5 11 -11
0 -6 -9 -8 -23 -4 -12 3 -17 3 -12 -2 15 -11 13 -35 -4 -41 -9 -3 -11 0 -6 9
5 8 4 11 -1 6 -14 -13 -11 -31 6 -45 12 -10 9 -10 -15 -1 l-30 10 25 -27 c14
-15 19 -24 12 -20 -6 4 -12 2 -12 -4 0 -6 -5 -8 -12 -4 -10 6 -10 4 0 -8 8
-10 9 -19 3 -22 -5 -3 -7 -16 -5 -29 4 -20 4 -20 -5 -2 -4 11 -7 23 -4 28 2 4
-1 7 -7 7 -7 0 -10 -7 -6 -15 3 -8 0 -15 -7 -15 -8 0 -8 -3 2 -9 9 -6 10 -10
2 -12 -11 -4 -21 -61 -23 -136 -1 -18 -5 -30 -10 -27 -4 3 -8 0 -8 -5 0 -6 -5
-11 -12 -11 -6 0 -4 8 6 19 10 11 16 26 13 33 -3 8 -6 6 -6 -6 -1 -10 -6 -16
-13 -13 -10 3 -13 -13 -13 -62 0 -49 3 -65 13 -63 8 1 11 -2 7 -8 -3 -6 -11
-8 -16 -5 -5 4 -9 -27 -9 -74 0 -46 4 -81 10 -81 5 0 7 8 4 18 -5 14 -4 14 4
2 8 -10 8 -18 1 -27 -8 -9 -4 -10 19 -4 32 10 46 5 55 -19 4 -12 6 -12 6 1 1
21 24 30 42 17 11 -8 11 -9 -3 -4 -10 3 -20 2 -22 -3 -6 -10 65 -8 81 2 6 4
13 2 15 -5 6 -16 45 -18 45 -2 0 9 -5 10 -19 3 -12 -6 -18 -6 -18 1 0 5 7 10
15 10 8 0 15 5 15 10 0 6 10 0 21 -11 l22 -22 12 23 12 23 11 -29 c6 -17 11
-22 11 -11 1 9 8 17 16 17 8 0 15 5 15 10 0 6 4 10 8 10 5 0 9 -7 9 -15 0 -8
-4 -12 -9 -9 -4 3 -8 0 -8 -5 0 -14 13 -14 27 0 13 13 75 20 67 8 -3 -5 0 -9
5 -9 6 0 11 4 11 9 0 6 9 9 19 8 11 0 18 -4 16 -7 -2 -4 2 -7 10 -7 8 0 12 4
9 9 -3 4 -2 9 3 9 34 6 53 5 53 -1 0 -4 7 -7 15 -7 12 0 12 3 2 15 -10 13 -9
14 10 4 18 -10 24 -9 31 4 8 14 10 14 22 -1 11 -13 10 -15 -4 -9 -9 3 -16 2
-16 -4 0 -14 25 -9 47 9 20 17 31 18 52 5 11 -7 13 -5 9 6 -5 11 0 14 19 12
14 -1 30 -9 34 -16 6 -10 9 -8 10 7 0 12 3 15 6 7 4 -10 8 -9 17 4 10 13 15
14 21 4 6 -9 4 -11 -6 -5 -12 8 -12 6 0 -8 14 -18 26 -23 17 -8 -4 5 0 12 6
14 10 4 9 8 -2 17 -13 10 -13 11 1 7 9 -3 23 0 30 6 11 10 11 9 1 -4 -11 -14
-9 -16 14 -13 14 1 32 11 41 21 8 10 12 13 9 7 -3 -7 0 -14 8 -17 16 -6 26 1
26 17 0 6 -5 4 -10 -4 -6 -9 -10 -10 -10 -3 0 16 17 26 25 13 3 -5 11 -10 16
-10 6 0 7 6 3 13 -5 7 0 6 11 -3 14 -11 17 -11 11 -1 -7 10 -4 12 12 7 12 -4
23 -2 28 5 5 8 3 9 -6 4 -8 -5 -11 -4 -7 3 4 5 16 8 27 5 11 -3 20 0 20 6 0 9
6 9 23 0 12 -6 18 -8 14 -3 -4 4 3 13 15 20 19 10 26 10 39 -2 14 -12 16 -12
16 1 0 8 -5 11 -10 8 -6 -4 -7 -1 -2 6 5 9 11 9 17 3 12 -12 38 -5 38 10 0 6
-6 5 -15 -2 -8 -7 -15 -8 -15 -4 0 5 9 15 21 22 12 8 18 9 15 3 -4 -5 -2 -12
4 -16 5 -3 10 -1 10 6 0 6 8 9 19 6 15 -3 18 -1 14 12 -5 13 -3 14 8 4 7 -7
18 -13 23 -13 6 0 4 5 -4 10 -13 8 -12 10 3 10 11 0 15 4 11 12 -5 8 -2 9 11
5 11 -5 23 -1 32 10 8 10 12 13 9 8 -2 -6 4 -11 14 -11 15 0 17 3 7 15 -10 12
-9 13 13 1 23 -12 24 -12 11 4 -12 14 -12 16 4 10 14 -6 16 -4 10 7 -8 12 -6
12 8 0 9 -7 18 -11 18 -7 1 3 2 11 3 16 2 19 30 30 45 17 12 -10 13 -9 6 2 -6
11 -4 13 9 8 10 -4 15 -3 11 3 -3 5 -1 18 5 27 11 17 11 17 6 -1 -5 -15 -4
-17 7 -8 8 7 18 8 23 4 4 -4 3 0 -4 10 -10 12 -10 18 -1 24 7 4 9 3 6 -3 -4
-6 4 -10 18 -10 14 0 25 4 25 9 0 5 -4 6 -10 3 -5 -3 -10 -2 -10 3 0 17 13 22
28 9 13 -10 15 -9 9 7 -5 13 -3 17 7 13 19 -8 42 19 24 27 -7 3 -1 4 14 2 15
-1 25 1 22 5 -3 5 0 9 6 9 6 0 13 8 17 18 10 28 34 51 48 46 8 -3 12 2 12 13
-2 13 4 18 20 17 15 -1 20 3 15 14 -3 10 -1 13 6 8 8 -4 16 3 22 18 5 14 16
26 23 26 14 0 47 31 47 44 0 5 -9 -2 -20 -15 -10 -13 -19 -21 -20 -17 0 4 8
17 17 28 13 14 20 17 30 8 11 -8 12 -7 7 7 -6 14 -4 16 7 10 12 -7 12 -6 -1
11 -8 10 -11 16 -7 13 4 -3 26 11 49 32 23 21 47 35 52 32 6 -4 5 1 -3 10 -14
18 -26 24 -17 8 3 -5 -1 -15 -10 -22 -19 -16 -47 -21 -38 -8 3 5 9 7 14 4 8
-5 27 14 30 30 1 6 7 9 15 7 7 -1 17 3 21 9 4 7 3 10 -2 7 -5 -4 -9 4 -9 17 0
13 3 21 8 18 4 -2 7 1 7 6 0 6 5 11 12 11 9 0 9 -3 0 -12 -7 -7 -12 -16 -12
-22 0 -5 6 -1 14 9 8 11 12 23 10 27 -3 5 -1 8 4 8 5 0 8 11 7 25 -2 16 1 23
7 19 7 -5 9 2 6 20 -4 20 -2 24 7 16 10 -8 15 -7 21 1 4 8 3 9 -4 5 -7 -4 -12
-2 -12 3 0 6 7 11 16 11 14 0 14 1 0 16 -21 21 -20 30 0 13 15 -13 17 -11 12
18 -4 29 -3 31 15 21 16 -8 18 -7 9 8 -5 9 -7 26 -5 38 4 17 3 18 -6 6 -7 -9
-11 -10 -11 -3 0 6 5 15 11 18 6 4 8 13 5 21 -3 7 0 16 6 20 6 4 8 3 4 -4 -3
-6 -1 -14 6 -18 7 -4 10 -4 6 1 -4 4 -2 15 5 23 10 13 9 14 -1 8 -16 -10 -13
25 3 36 6 4 2 8 -7 8 -10 0 -18 6 -18 14 0 8 -5 18 -12 22 -7 5 -9 2 -5 -9 3
-9 -1 -21 -11 -29 -15 -12 -16 -11 -3 5 8 10 9 17 3 17 -6 0 -10 6 -8 13 1 6
1 9 -1 4 -3 -4 -9 -5 -14 -1 -5 3 -9 0 -9 -5 0 -6 5 -11 12 -11 6 0 8 -3 4 -7
-4 -5 -13 -8 -19 -8 -5 0 -12 -6 -15 -14 -3 -9 0 -11 9 -7 8 4 6 1 -3 -7 -10
-8 -14 -17 -10 -21 4 -5 -2 -6 -13 -4 -19 3 -21 -1 -24 -38 0 -10 -7 -14 -15
-11 -19 8 -42 -18 -25 -29 8 -5 9 -3 4 6 -5 9 -4 11 4 6 16 -10 4 -26 -21 -26
-18 0 -19 -2 -7 -17 10 -11 10 -14 2 -9 -8 4 -13 2 -13 -4 0 -6 -5 -8 -10 -5
-6 4 -7 11 -4 17 4 7 2 8 -4 4 -9 -5 -9 -13 0 -29 10 -19 9 -20 -4 -10 -8 7
-18 10 -21 6 -4 -3 1 -12 11 -20 16 -12 16 -13 -2 -6 -15 5 -17 3 -11 -8 8
-12 6 -12 -8 0 -15 12 -17 12 -12 -2 4 -8 1 -18 -6 -23 -8 -5 -10 -3 -4 7 8
12 6 12 -8 1 -9 -8 -22 -11 -29 -7 -7 4 -4 -1 6 -9 11 -9 14 -16 7 -16 -7 0
-9 -5 -5 -12 6 -10 4 -10 -8 0 -13 10 -18 10 -24 1 -4 -8 -3 -9 4 -5 7 4 12 2
12 -3 0 -6 -4 -12 -10 -12 -5 -1 -14 -2 -19 -3 -15 -2 -26 -16 -13 -16 7 0 12
-4 12 -9 0 -5 -15 -8 -32 -6 -18 2 -27 1 -20 -2 6 -2 12 -9 12 -14 0 -6 -5 -7
-12 -3 -8 5 -9 2 -4 -11 6 -16 4 -16 -11 -4 -15 12 -16 12 -10 -3 7 -20 -10
-35 -41 -32 -17 1 -22 -3 -17 -13 3 -11 1 -13 -10 -9 -9 3 -15 0 -15 -10 0 -8
5 -12 10 -9 6 3 10 1 10 -5 0 -6 -12 -8 -31 -5 -26 5 -30 3 -25 -11 5 -14 4
-15 -9 -4 -13 11 -14 10 -8 -6 6 -17 5 -18 -12 -4 -17 14 -18 14 -5 -10 10
-21 10 -23 -1 -12 -16 15 -30 16 -27 1 2 -6 -3 -14 -11 -17 -9 -3 -11 0 -6 8
5 9 4 11 -4 6 -7 -4 -10 -13 -8 -19 2 -7 -7 -17 -21 -24 -33 -18 -38 -16 -15
5 10 9 12 13 3 7 -8 -5 -23 -18 -33 -30 -10 -11 -16 -15 -13 -8 4 7 -1 11 -13
10 -15 -1 -17 -4 -9 -14 7 -9 7 -13 -1 -13 -7 0 -9 -5 -5 -12 4 -7 3 -8 -5 -4
-6 4 -18 2 -26 -4 -8 -7 -15 -8 -15 -3 0 6 10 15 23 22 17 9 17 10 2 5 -11 -3
-25 -7 -32 -7 -6 0 -10 -9 -8 -19 2 -10 0 -16 -5 -13 -5 3 -12 1 -15 -5 -5 -8
-11 -8 -20 0 -10 8 -15 8 -20 -1 -4 -6 -1 -15 6 -20 10 -7 8 -8 -8 -6 -12 2
-26 7 -30 12 -5 4 -3 5 3 2 6 -3 11 0 11 8 0 11 -4 12 -14 4 -7 -6 -10 -15 -7
-20 5 -8 -41 -14 -73 -10 -7 1 -13 -3 -13 -9 0 -6 5 -8 10 -5 6 3 10 1 10 -4
0 -15 -13 -14 -29 2 -11 10 -12 7 -7 -13 3 -14 3 -19 0 -12 -3 6 -11 9 -16 6
-6 -4 -8 -2 -4 4 7 12 -20 10 -31 -3 -5 -4 -1 -5 7 0 9 5 12 5 7 -1 -5 -5 -13
-10 -18 -10 -5 -1 -10 -2 -11 -4 -9 -6 -46 -5 -42 2 3 4 -2 8 -11 8 -10 0 -13
-5 -9 -12 4 -7 -3 -4 -15 7 -16 14 -22 15 -19 5 2 -8 8 -18 13 -22 6 -5 6 -8
-2 -8 -6 0 -19 10 -28 23 -17 22 -17 22 -11 0 4 -12 2 -24 -5 -29 -8 -5 -9 -3
-4 6 6 10 4 12 -10 6 -16 -6 -16 -4 -4 11 10 13 7 13 -11 -3 -14 -11 -31 -19
-37 -18 -7 1 -18 2 -24 3 -5 0 -7 7 -3 14 4 6 4 9 -1 5 -4 -4 -14 0 -22 10
-12 15 -13 14 -2 -7 10 -21 9 -23 -6 -18 -9 4 -19 7 -21 7 -3 0 -2 6 1 13 4 6
-2 2 -12 -9 -15 -17 -22 -19 -35 -10 -8 6 -15 15 -14 20 1 5 -7 10 -17 12 -9
1 -15 -2 -11 -7 3 -5 11 -6 17 -3 7 4 9 3 5 -1 -5 -5 -20 -10 -35 -11 -21 -2
-24 -1 -13 6 11 7 7 10 -17 10 -18 0 -33 5 -33 11 0 5 5 7 10 4 16 -10 11 1
-7 16 -11 10 -14 10 -9 2 4 -8 2 -13 -8 -13 -8 0 -18 5 -22 12 -4 7 -3 8 4 4
8 -5 12 0 12 13 0 12 6 21 13 21 8 0 7 4 -3 10 -12 8 -10 10 8 10 13 0 21 4
17 10 -3 5 -13 6 -23 3 -9 -4 -2 6 16 21 17 15 29 33 25 38 -4 7 -1 8 6 4 9
-6 8 -13 -5 -27 -23 -25 -9 -24 16 1 11 11 15 20 8 20 -9 0 -9 3 0 12 7 7 12
17 12 23 0 5 -5 3 -10 -5 -5 -8 -10 -10 -10 -4 0 15 25 36 33 27 4 -3 7 -1 7
6 0 7 4 10 9 6 5 -3 12 -1 15 4 4 5 1 13 -5 17 -8 5 -9 3 -4 -6 6 -9 4 -11 -4
-6 -15 10 -6 21 16 21 9 0 18 7 20 15 4 13 3 13 -7 0 -10 -13 -11 -13 -7 0 2
8 12 14 21 14 10 -1 16 6 16 17 0 11 7 19 15 19 8 0 15 5 15 11 0 5 -4 7 -10
4 -6 -3 -7 1 -4 10 4 8 11 15 18 14 6 -1 20 -1 31 0 17 1 18 3 5 11 -16 10
-13 12 20 14 11 0 20 6 19 11 0 6 -7 9 -15 7 -12 -2 -11 1 3 16 19 20 39 19
26 -1 -3 -6 8 -1 26 12 20 15 30 29 27 38 -5 11 -2 13 9 9 9 -3 13 -2 10 4 -3
6 -1 10 5 10 6 0 8 5 4 13 -6 9 -5 9 8 0 17 -15 28 -8 28 18 0 10 5 21 12 25
7 4 8 3 4 -4 -4 -7 -2 -12 3 -12 6 0 11 7 11 16 0 8 5 12 10 9 6 -4 7 -11 4
-17 -5 -7 -2 -8 5 -4 7 5 10 14 7 21 -3 9 1 12 13 10 12 -2 18 2 17 12 -1 14
8 18 62 25 6 1 12 8 12 16 0 9 6 12 16 8 13 -5 14 -3 6 7 -8 10 -6 13 9 14 12
1 17 -3 13 -9 -5 -7 -2 -8 5 -4 7 5 10 15 6 24 -3 9 -3 13 1 9 11 -10 35 13
27 27 -8 12 28 -13 39 -29 5 -7 8 -6 8 0 0 6 -6 17 -12 24 -9 10 -9 12 -1 7 6
-3 17 2 23 11 11 16 11 16 5 -2 -3 -11 -3 -16 1 -12 4 4 14 1 22 -6 9 -7 13
-7 9 -1 -3 6 0 20 8 30 15 18 15 18 8 0 -6 -18 -5 -18 19 -2 13 9 28 13 32 9
4 -4 4 1 0 12 -7 20 -7 20 17 0 22 -19 23 -19 9 -1 -14 18 -13 19 3 13 19 -7
24 8 5 17 -7 2 -3 4 9 2 12 -1 25 -5 29 -8 8 -9 34 2 34 14 0 6 -8 4 -17 -3
-16 -13 -17 -12 -5 3 13 16 15 16 40 0 26 -16 27 -16 12 3 -9 11 -10 16 -3 11
7 -4 22 -9 33 -11 17 -3 19 -1 10 15 -8 16 -8 18 5 14 8 -4 15 -9 15 -13 0 -4
8 -7 19 -7 11 0 17 5 14 13 -3 7 -10 10 -16 6 -6 -3 -7 -1 -3 6 6 9 11 9 23 0
22 -19 52 -19 45 0 -5 14 -4 14 13 1 14 -11 17 -12 11 -1 -6 9 -5 12 5 9 8 -3
23 2 33 11 11 9 16 10 12 4 -4 -8 -1 -13 9 -13 9 0 14 -4 11 -8 -6 -10 33 -10
49 0 6 3 18 4 28 3 9 -2 15 1 11 6 -7 12 10 11 22 -1 7 -7 11 -6 11 4 0 8 -3
15 -6 14 -21 -2 -29 4 -26 20 3 21 -14 44 -27 36 -5 -3 -2 -14 8 -25 13 -15
14 -19 3 -19 -12 0 -12 -2 0 -9 9 -6 10 -11 2 -15 -11 -7 -15 6 -12 33 2 8 -2
10 -10 5 -7 -4 -10 -3 -6 3 4 6 -1 19 -9 29 -14 17 -15 17 -10 2 3 -10 1 -18
-4 -18 -6 0 -10 4 -10 9 0 5 -7 12 -16 15 -12 5 -14 3 -8 -7 5 -7 1 -4 -8 6
-13 13 -18 15 -18 6 0 -11 -2 -11 -10 1 -8 12 -10 12 -11 -5 -1 -17 -2 -16 -9
5 -5 15 -8 19 -9 8 -1 -12 -8 -15 -27 -12 -19 3 -24 1 -19 -8 4 -7 0 -5 -8 5
-14 17 -33 24 -23 9 3 -5 -1 -9 -9 -9 -8 0 -15 5 -16 11 0 6 -4 2 -9 -9 -8
-18 -9 -18 -9 -2 -1 10 -6 15 -11 12 -6 -4 -7 -11 -4 -17 4 -6 -1 -6 -14 1
-15 8 -23 8 -28 -1 -4 -6 -3 -8 4 -4 6 3 13 2 17 -3 3 -6 -3 -8 -15 -6 -11 2
-22 -1 -25 -6 -10 -15 -24 0 -20 21 2 12 0 18 -6 15 -5 -4 -6 -11 -3 -17 5 -8
1 -9 -11 -4 -15 5 -16 4 -5 -9 16 -20 6 -19 -14 1 -9 8 -16 10 -16 4 0 -7 -6
-8 -19 0 -11 5 -22 6 -25 2 -3 -5 0 -9 7 -10 40 -3 67 -18 67 -35 0 -7 -5 -4
-11 6 -8 14 -14 15 -32 5 -30 -17 -49 -19 -63 -7 -8 7 -15 6 -20 -2 -5 -8 -3
-10 7 -4 8 5 11 4 6 0 -9 -10 -57 -13 -51 -3 2 3 1 9 -4 12 -13 8 -11 -28 2
-37 7 -6 5 -7 -6 -4 -9 3 -19 1 -22 -6 -3 -7 -3 -1 0 13 4 18 3 21 -4 11 -6
-8 -15 -10 -23 -5 -12 6 -11 5 0 -9 12 -15 12 -17 -4 -11 -12 5 -16 4 -11 -4
3 -6 1 -14 -5 -18 -7 -4 -9 -3 -6 2 3 6 -3 16 -15 23 -11 7 -17 8 -13 2 3 -6
-1 -11 -10 -11 -9 0 -13 -4 -10 -10 3 -5 2 -10 -4 -10 -5 0 -12 6 -14 13 -3 6
-6 2 -6 -10 -1 -13 -6 -23 -12 -23 -5 0 -8 4 -5 8 3 5 -2 9 -10 9 -9 0 -13 -6
-9 -16 3 -8 3 -12 -1 -9 -10 11 -45 -12 -38 -24 4 -7 2 -8 -5 -4 -6 4 -19 2
-28 -6 -11 -8 -14 -8 -10 -1 5 8 1 11 -12 10 -16 -1 -18 -5 -9 -20 8 -16 7
-18 -8 -9 -23 13 -54 4 -47 -14 4 -10 0 -12 -13 -7 -17 6 -18 5 -4 -12 14 -17
14 -18 -9 -5 -21 11 -23 10 -18 -4 3 -8 1 -18 -5 -22 -6 -4 -8 -3 -4 4 3 6 2
13 -4 17 -5 3 -10 -2 -10 -11 0 -10 -3 -14 -7 -11 -9 10 -34 -14 -26 -26 3 -6
1 -7 -5 -3 -7 4 -12 3 -12 -3 0 -6 -8 -7 -17 -4 -16 6 -16 5 -4 -10 12 -15 12
-17 -4 -11 -14 6 -16 4 -10 -7 7 -12 6 -12 -7 -1 -13 10 -18 9 -29 -5 -13 -16
-12 -17 4 -4 11 8 17 9 17 2 0 -6 -11 -13 -25 -17 -16 -4 -32 -19 -40 -38 -12
-26 -14 -27 -10 -6 3 14 2 19 -1 12 -3 -6 -10 -10 -15 -7 -5 4 -6 -1 -3 -9 4
-11 0 -16 -12 -16 -16 0 -17 -2 -4 -10 13 -9 13 -10 0 -10 -9 0 -22 -9 -30
-19 -7 -11 -17 -18 -22 -15 -4 3 -5 -1 -2 -9 6 -18 -21 -41 -38 -31 -7 4 -10
4 -6 -1 4 -4 2 -15 -5 -23 -10 -13 -9 -14 3 -7 8 4 3 -3 -12 -18 -17 -16 -25
-32 -22 -41 3 -9 1 -16 -4 -16 -6 0 -14 -9 -17 -21 -4 -11 -9 -18 -12 -15 -3
3 2 17 11 31 9 14 12 25 6 25 -13 0 -41 -56 -32 -66 4 -5 0 -3 -9 4 -9 6 -19
9 -23 5 -4 -4 -11 -1 -16 7 -13 20 -12 30 1 30 5 0 7 -5 3 -12 -5 -7 -3 -8 6
-3 8 5 11 4 7 -2 -3 -5 0 -10 8 -10 19 0 19 0 -3 24 -9 11 -24 18 -32 16 -10
-3 -9 0 3 7 9 6 15 15 12 21 -4 5 1 9 11 9 13 0 14 -3 4 -15 -9 -10 -9 -15 -1
-15 6 0 11 3 12 8 0 4 2 18 5 32 3 19 2 21 -6 10 -7 -12 -9 -10 -7 8 0 12 5
22 10 22 5 0 7 6 4 13 -3 8 1 14 8 14 11 0 11 -5 4 -21 -10 -20 -10 -20 5 -2
11 14 13 23 5 32 -8 10 -6 12 10 9 15 -3 18 0 14 12 -5 12 -3 14 8 8 12 -7 12
-6 1 7 -9 12 -10 18 -2 23 6 4 9 14 5 22 -4 12 -2 13 7 5 12 -10 34 4 41 25 1
5 8 7 14 7 9 -1 10 3 3 16 -10 19 -4 30 17 30 9 0 11 -5 7 -12 -5 -9 -2 -9 9
1 9 7 17 19 17 25 0 7 -4 6 -9 -2 -7 -11 -9 -11 -14 2 -4 9 -3 15 1 15 20 -3
33 2 27 11 -4 6 1 7 12 3 16 -6 16 -5 4 10 -12 15 -12 17 4 10 14 -5 17 -3 12
10 -5 14 -2 15 21 6 15 -6 23 -7 19 -3 -4 4 3 19 15 33 13 14 16 20 8 14 -8
-7 -18 -13 -24 -13 -5 0 -1 6 9 14 11 8 25 12 31 9 7 -2 15 1 20 8 4 7 3 10
-3 6 -5 -3 -10 0 -10 8 0 8 4 12 9 9 5 -3 19 2 30 13 12 10 18 13 15 6 -4 -6
-3 -14 3 -18 5 -3 10 1 10 10 0 9 6 15 13 13 6 -1 22 3 35 10 12 7 27 10 32 7
6 -4 7 1 3 11 -5 13 -2 15 14 10 13 -4 25 -1 33 9 8 9 21 13 34 10 17 -5 18
-4 6 4 -12 9 -9 11 15 12 17 1 34 1 38 0 5 -1 6 3 2 9 -3 5 -1 10 4 10 6 0 11
-4 11 -10 0 -5 5 -10 10 -10 7 0 7 6 1 18 -7 14 -6 19 4 19 8 0 12 -4 9 -9 -3
-4 -1 -8 4 -8 5 0 14 10 21 23 11 22 11 22 5 -3 -6 -25 -6 -25 11 -5 9 11 14
15 11 8 -4 -6 -1 -15 6 -19 7 -4 10 -3 5 1 -4 5 1 17 10 28 17 20 17 20 -1 14
-10 -4 -25 -2 -32 4 -15 12 -38 3 -29 -12 3 -5 -1 -6 -9 -3 -9 3 -16 10 -16
16 0 5 5 6 12 2 7 -5 8 -3 3 6 -6 9 -4 11 5 5 9 -6 11 -4 5 4 -6 10 -3 11 14
2 14 -8 21 -8 21 -1 0 5 8 10 17 10 15 0 14 -2 -3 -16 -17 -14 -18 -15 -1 -10
28 9 39 -2 25 -27 -10 -20 -10 -21 6 -8 9 8 19 11 23 8 3 -4 12 -2 20 4 10 9
13 8 13 -2 0 -8 6 -5 14 6 8 11 12 24 8 30 -3 5 5 1 18 -10 16 -14 24 -16 27
-7 3 6 11 12 18 12 19 0 28 17 14 26 -8 4 -9 3 -5 -4 4 -7 1 -12 -9 -12 -9 0
-14 3 -12 8 3 4 -24 7 -59 8 -35 0 -64 -3 -64 -8 0 -5 4 -7 9 -3 6 3 15 -4 21
-16 10 -17 9 -20 -1 -14 -8 6 -10 4 -4 -5 5 -8 4 -11 -3 -6 -6 4 -8 14 -5 23
4 11 3 14 -5 9 -7 -4 -15 -1 -18 7 -4 11 -20 15 -60 14 -30 -1 -50 -3 -44 -5z
m165 -12 c-3 -5 -1 -10 5 -10 6 0 8 -5 4 -11 -4 -8 -9 -7 -15 2 -7 12 -3 29 7
29 3 0 2 -4 -1 -10z m59 -11 c-3 -5 -10 -7 -15 -3 -5 3 -7 10 -3 15 3 5 10 7
15 3 5 -3 7 -10 3 -15z m-319 -69 c-3 -5 -12 -10 -18 -10 -7 0 -6 4 3 10 19
12 23 12 15 0z m-41 -18 c3 -5 -1 -9 -9 -9 -8 0 -12 4 -9 9 3 4 7 8 9 8 2 0 6
-4 9 -8z m871 -1 c3 -5 0 -13 -6 -17 -8 -4 -9 -3 -5 4 4 7 2 12 -3 12 -6 0
-11 -5 -11 -12 0 -6 -3 -9 -6 -5 -7 7 4 27 16 27 5 0 11 -4 15 -9z m-1042 -16
c-3 -9 -8 -14 -10 -11 -3 3 -2 9 2 15 9 16 15 13 8 -4z m92 -24 c3 -5 2 -12
-3 -15 -5 -3 -9 1 -9 9 0 17 3 19 12 6z m1229 -110 c3 -5 -2 -15 -12 -22 -15
-12 -16 -12 -5 2 7 9 10 19 6 22 -3 4 -4 7 0 7 3 0 8 -4 11 -9z m-954 -56 c0
-2 -10 -9 -22 -15 -22 -11 -22 -10 -4 4 21 17 26 19 26 11z m-220 -170 c0 -2
-8 -9 -18 -14 -14 -7 -19 -6 -19 3 0 6 9 13 19 13 10 1 18 0 18 -2z m250 -429
c0 -2 -7 -7 -16 -10 -8 -3 -12 -2 -9 4 6 10 25 14 25 6z m480 -55 c0 -5 -7
-12 -16 -15 -14 -5 -15 -4 -4 9 14 17 20 19 20 6z m-1726 -203 c-3 -4 -9 -8
-15 -8 -5 0 -9 4 -9 8 0 5 7 9 15 9 8 0 12 -4 9 -9z m901 -167 c3 -5 2 -12 -3
-15 -5 -3 -9 1 -9 9 0 17 3 19 12 6z m-400 -51 c-3 -5 -12 -10 -18 -10 -7 0
-6 4 3 10 19 12 23 12 15 0z m-355 -28 c0 -5 -7 -9 -15 -9 -8 0 -12 4 -9 9 3
4 9 8 15 8 5 0 9 -4 9 -8z"/>
<path d="M1506 2782 c-3 -5 1 -9 9 -9 8 0 12 4 9 9 -3 4 -7 8 -9 8 -2 0 -6 -4
-9 -8z"/>
<path d="M1756 2778 c3 -5 10 -6 15 -3 13 9 11 12 -6 12 -8 0 -12 -4 -9 -9z"/>
<path d="M1786 2773 c-6 -14 -5 -15 5 -6 7 7 10 15 7 18 -3 3 -9 -2 -12 -12z"/>
<path d="M1610 2750 c-6 -11 -8 -20 -6 -20 3 0 10 9 16 20 6 11 8 20 6 20 -3
0 -10 -9 -16 -20z"/>
<path d="M1453 2735 c0 -8 4 -12 9 -9 5 3 6 10 3 15 -9 13 -12 11 -12 -6z"/>
<path d="M1500 2709 c0 -5 5 -7 10 -4 6 3 10 8 10 11 0 2 -4 4 -10 4 -5 0 -10
-5 -10 -11z"/>
<path d="M1990 2709 c0 -5 5 -7 10 -4 6 3 10 8 10 11 0 2 -4 4 -10 4 -5 0 -10
-5 -10 -11z"/>
<path d="M1853 2655 c0 -8 4 -12 9 -9 5 3 6 10 3 15 -9 13 -12 11 -12 -6z"/>
<path d="M915 2589 c-4 -6 -5 -12 -2 -15 2 -3 7 2 10 11 7 17 1 20 -8 4z"/>
<path d="M653 2565 c0 -8 4 -12 9 -9 5 3 6 10 3 15 -9 13 -12 11 -12 -6z"/>
<path d="M2220 2576 c0 -2 7 -7 16 -10 8 -3 12 -2 9 4 -6 10 -25 14 -25 6z"/>
<path d="M1355 2520 c-3 -5 -1 -10 4 -10 6 0 11 5 11 10 0 6 -2 10 -4 10 -3 0
-8 -4 -11 -10z"/>
<path d="M2361 2484 c0 -11 3 -14 6 -6 3 7 2 16 -1 19 -3 4 -6 -2 -5 -13z"/>
<path d="M2389 2488 c-1 -7 -1 -16 0 -20 0 -5 -3 -8 -9 -8 -5 0 -10 -7 -10
-15 0 -8 4 -15 9 -15 4 0 7 -10 7 -22 -1 -13 2 -28 7 -35 5 -7 7 -18 4 -25 -4
-9 -6 -9 -6 2 -1 8 -11 21 -23 29 -20 13 -22 12 -11 -1 7 -8 9 -19 5 -23 -4
-5 -2 -5 4 -2 6 3 11 0 11 -7 0 -8 -7 -12 -16 -9 -9 2 -5 -3 9 -11 14 -8 19
-15 11 -16 -10 0 -11 -3 -2 -13 8 -10 7 -14 -3 -14 -8 0 -13 8 -11 19 2 10 0
16 -5 13 -4 -3 -7 -13 -5 -23 1 -9 -2 -25 -6 -34 -6 -11 -4 -22 8 -34 17 -16
16 -17 -9 -12 -15 3 -25 2 -23 -3 3 -4 2 -9 -2 -12 -5 -2 -2 -2 6 0 9 2 11 -2
7 -13 -3 -8 -6 -18 -6 -20 0 -3 -4 -3 -8 0 -5 3 -9 -1 -9 -9 0 -8 4 -12 9 -9
4 3 8 0 8 -5 0 -6 -6 -11 -14 -11 -8 0 -18 -5 -22 -12 -4 -6 -3 -8 3 -5 6 4
10 -5 9 -22 -1 -26 -3 -28 -21 -19 -17 9 -16 6 5 -18 14 -16 17 -22 8 -15 -18
13 -23 7 -19 -21 0 -4 -11 -4 -25 -2 -25 5 -25 4 -9 -13 12 -11 14 -18 6 -21
-6 -2 -8 -9 -4 -15 4 -6 0 -8 -10 -4 -19 7 -44 -18 -27 -28 8 -5 7 -12 -4 -24
-9 -10 -13 -21 -9 -26 5 -4 2 -5 -5 -1 -11 7 -10 11 2 25 14 15 14 18 1 18 -8
0 -12 -4 -9 -8 2 -4 0 -10 -5 -14 -6 -3 -7 -13 -4 -22 5 -12 2 -15 -10 -10
-21 8 -22 3 -2 -16 13 -13 13 -16 -1 -21 -8 -3 -12 -2 -9 4 3 6 -1 10 -10 10
-9 0 -13 -4 -10 -10 3 -5 -1 -20 -9 -32 -11 -15 -16 -18 -17 -8 0 8 -6 4 -12
-10 -19 -40 -32 -51 -47 -37 -10 9 -10 7 0 -13 12 -23 12 -24 -4 -11 -9 8 -16
10 -15 5 1 -5 1 -18 0 -28 -1 -20 -1 -20 -16 0 -14 18 -14 18 -10 -3 4 -22
-16 -45 -41 -49 -8 -1 -14 3 -14 9 0 5 -3 7 -6 4 -4 -4 -1 -14 7 -24 9 -11 10
-14 2 -9 -7 4 -13 2 -13 -3 0 -6 -5 -11 -11 -11 -5 0 -7 6 -3 13 5 7 1 6 -10
-3 -10 -8 -22 -23 -26 -35 -4 -12 -16 -20 -31 -20 -15 0 -28 -9 -36 -25 -7
-14 -13 -19 -13 -12 0 6 -4 12 -9 12 -5 0 -7 -10 -4 -22 5 -23 5 -23 -11 -3
-13 16 -15 17 -10 2 5 -14 2 -16 -12 -10 -16 6 -17 4 -7 -9 11 -13 8 -15 -21
-13 -29 2 -34 0 -32 -19 2 -19 -2 -21 -38 -20 -23 1 -35 0 -28 -3 20 -8 14
-26 -8 -20 -13 3 -20 0 -20 -8 0 -8 -5 -17 -12 -21 -7 -4 -8 -3 -4 4 12 20
-22 14 -36 -6 -7 -10 -28 -26 -47 -35 -37 -18 -55 -23 -31 -7 12 7 10 9 -7 8
-13 -2 -19 -7 -15 -16 4 -12 1 -12 -18 -2 -16 9 -20 9 -15 0 4 -7 2 -10 -6 -9
-8 2 -24 -2 -37 -9 -12 -7 -28 -10 -35 -6 -6 5 -5 -1 3 -11 8 -10 10 -16 3
-12 -6 4 -18 1 -26 -8 -13 -13 -16 -13 -21 0 -5 13 -9 13 -25 3 -11 -7 -17
-16 -15 -20 3 -4 0 -8 -5 -8 -6 0 -11 6 -11 13 0 8 -3 7 -9 -3 -6 -8 -8 -17
-6 -21 6 -9 -39 -6 -46 4 -7 9 -71 -16 -69 -27 1 -4 -2 -11 -6 -14 -4 -4 -4
-2 0 5 3 6 2 14 -3 17 -5 4 -12 -2 -15 -12 -4 -10 -12 -19 -19 -20 -26 -3 -62
-10 -67 -12 -15 -7 -37 -4 -53 9 -16 13 -17 13 -12 0 3 -9 -1 -22 -9 -29 -13
-10 -17 -9 -24 11 l-9 23 -5 -22 c-6 -22 -28 -31 -28 -12 0 6 -5 10 -11 10 -5
0 -8 -3 -6 -7 3 -5 -12 -8 -34 -9 -25 -1 -37 3 -33 10 3 6 -3 1 -12 -12 -17
-23 -34 -29 -34 -11 0 5 5 7 12 3 7 -4 8 -3 4 4 -4 6 -13 9 -21 6 -8 -4 -12
-11 -8 -18 4 -6 -2 -4 -12 4 -17 13 -18 13 -13 -1 7 -19 -23 -19 -45 0 -12 9
-17 9 -23 0 -4 -8 -3 -9 4 -5 7 4 12 2 12 -4 0 -7 -6 -10 -14 -7 -8 3 -17 1
-20 -6 -3 -7 -3 -1 0 13 3 14 2 20 -3 15 -13 -16 -63 -36 -63 -25 0 6 5 10 11
10 5 0 7 5 4 10 -4 6 -14 1 -24 -11 -12 -15 -24 -20 -35 -16 -10 4 -15 11 -12
15 3 5 -1 9 -9 9 -10 0 -12 -4 -5 -12 5 -7 7 -15 3 -18 -3 -4 -12 1 -19 11
-11 14 -15 15 -26 3 -9 -10 -9 -12 -1 -7 9 5 11 2 6 -10 -4 -11 -8 -13 -11 -6
-2 7 -8 9 -14 6 -5 -4 -4 4 2 17 13 24 13 24 -9 5 -13 -12 -21 -15 -21 -6 0 6
-6 10 -14 7 -7 -3 -19 0 -26 6 -9 9 -11 9 -7 1 4 -7 0 -15 -9 -18 -23 -9 -26
-8 -18 7 4 6 -1 5 -12 -4 -10 -9 -25 -14 -31 -12 -7 3 -13 -1 -13 -8 0 -7 -3
-9 -6 -6 -4 4 -2 13 5 21 10 11 7 14 -13 12 -13 0 -22 -4 -19 -8 2 -5 -1 -8
-6 -8 -6 0 -11 5 -11 11 0 5 -5 7 -10 4 -6 -4 -7 -11 -4 -17 5 -7 2 -8 -5 -4
-7 5 -10 14 -7 22 4 11 1 12 -12 6 -9 -5 -23 -7 -31 -4 -8 3 -11 0 -7 -7 5 -7
1 -9 -8 -5 -9 3 -13 10 -10 15 3 5 -10 0 -28 -11 -18 -11 -43 -24 -56 -30 -23
-10 -30 -22 -11 -18 6 2 14 -3 17 -11 3 -9 0 -11 -8 -6 -9 5 -11 4 -6 -4 4 -6
12 -9 17 -6 5 4 9 0 9 -7 0 -10 3 -9 11 2 9 13 10 13 6 0 -2 -8 -9 -15 -15
-15 -7 0 -11 -4 -9 -10 1 -5 6 -9 10 -7 5 1 5 -7 2 -19 -6 -17 -4 -21 8 -16
13 5 15 2 7 -18 -8 -21 -7 -25 10 -25 10 0 22 -5 26 -12 4 -7 3 -8 -4 -4 -8 5
-12 -1 -12 -14 0 -12 5 -18 10 -15 13 8 13 -1 -2 -28 -10 -19 -9 -21 4 -9 13
10 18 10 24 1 5 -8 3 -9 -6 -4 -10 6 -12 4 -7 -9 4 -10 7 -20 7 -22 0 -2 7 -4
15 -4 8 0 15 -5 15 -11 0 -5 -4 -7 -10 -4 -5 3 -7 0 -4 -9 3 -9 12 -12 22 -9
9 4 14 2 10 -2 -5 -5 3 -23 17 -41 18 -23 22 -35 13 -40 -7 -5 -8 -3 -3 6 5 9
4 11 -4 6 -6 -4 -9 -12 -5 -17 3 -5 10 -7 15 -4 5 4 9 -1 9 -10 0 -10 5 -13
12 -9 10 6 10 4 0 -8 -11 -14 -10 -17 8 -23 16 -5 20 -13 17 -27 -4 -15 -3
-17 8 -8 9 8 14 7 18 -5 4 -9 13 -12 24 -8 12 4 10 -1 -7 -15 -14 -12 -20 -21
-13 -22 6 0 13 6 16 12 3 9 11 6 24 -9 16 -18 22 -20 33 -10 7 7 11 8 8 2 -3
-5 9 -21 26 -35 28 -21 29 -22 12 -2 -26 30 -13 28 20 -3 21 -19 30 -22 41
-14 11 10 12 8 7 -6 -5 -12 -4 -16 3 -12 6 4 13 4 16 0 2 -5 2 -2 0 5 -1 8 3
12 9 10 7 -3 13 -10 13 -16 0 -16 11 -19 22 -8 5 5 2 6 -6 1 -9 -5 -12 -4 -7
3 8 13 36 5 36 -10 0 -6 7 -8 15 -5 8 4 17 3 19 -2 7 -11 -27 -10 -42 2 -8 6
-12 6 -12 -2 0 -11 6 -13 45 -15 11 -1 26 -5 32 -9 9 -6 11 -3 6 10 -6 16 -5
17 13 3 10 -8 22 -19 26 -25 5 -6 8 -6 8 1 0 7 7 15 16 18 14 5 15 4 5 -8 -10
-12 -8 -15 18 -14 19 1 28 5 24 12 -4 6 1 5 10 -3 18 -15 23 -26 7 -16 -5 3
-10 4 -10 1 0 -2 14 -12 32 -20 l31 -16 -19 21 c-19 22 -19 22 3 11 12 -7 24
-17 26 -24 3 -8 6 -6 6 5 1 10 6 15 11 12 6 -4 8 -9 6 -13 -2 -4 9 -8 25 -9
16 -1 27 2 24 6 -6 11 15 9 33 -3 7 -4 20 -2 29 6 11 8 14 9 10 1 -5 -7 1 -16
12 -22 24 -13 34 -14 27 -3 -3 5 1 9 9 9 8 0 11 -5 8 -10 -4 -6 1 -8 11 -4 10
4 20 7 22 7 3 0 2 5 -2 12 -5 7 -3 8 5 4 9 -6 8 -13 -6 -29 -17 -20 -17 -21 0
-8 14 11 21 11 29 3 15 -15 28 -15 28 -2 0 6 -5 9 -11 8 -6 -2 -13 3 -14 10
-2 7 -1 8 2 2 3 -7 10 -7 21 2 9 7 13 8 9 2 -4 -7 -1 -17 7 -23 16 -13 49 -4
39 12 -4 6 -1 7 7 2 7 -4 16 -2 22 6 7 10 8 8 3 -7 -5 -18 -1 -21 22 -20 16 1
34 5 42 10 10 6 12 5 7 -2 -11 -19 5 -14 20 6 10 13 12 14 11 2 -3 -20 16 -25
19 -4 1 9 6 19 10 22 4 4 4 -1 1 -10 -4 -10 -2 -18 4 -18 6 0 7 -6 4 -12 -4
-7 1 -4 9 6 9 11 16 14 16 8 0 -7 5 -12 11 -12 5 0 8 4 5 8 -2 4 4 8 14 9 11
1 22 -2 25 -8 4 -5 -2 -6 -12 -2 -10 3 -15 3 -12 -1 11 -12 50 -16 43 -4 -5 7
-2 9 8 5 9 -3 20 -1 25 4 12 12 45 1 37 -12 -3 -5 -3 -9 1 -9 3 0 10 10 15 23
6 16 9 18 9 5 1 -12 6 -15 18 -11 12 5 14 3 8 -7 -5 -9 -4 -11 4 -6 6 4 9 12
6 17 -4 5 -1 9 5 9 6 0 8 5 5 11 -4 6 2 5 13 -2 12 -7 19 -16 16 -20 -2 -4 4
-6 13 -4 10 1 24 -3 32 -9 12 -9 12 -8 3 11 -13 24 -16 45 -4 25 5 -7 25 -13
45 -14 21 -1 34 -5 30 -11 -3 -6 -1 -7 6 -3 9 6 9 11 0 22 -10 12 -9 13 6 8
14 -6 16 -4 10 6 -5 9 -4 11 4 6 6 -4 9 -11 7 -15 -3 -4 0 -13 6 -21 8 -12 9
-12 4 2 -7 23 9 32 33 18 14 -7 22 -7 27 1 3 6 15 9 25 6 11 -3 17 -1 14 3 -3
5 -1 11 5 15 5 3 10 0 10 -7 0 -9 3 -9 10 2 8 13 11 13 19 1 7 -11 10 -10 15
6 3 10 15 19 26 20 11 1 18 -2 15 -8 -7 -10 23 -8 42 4 6 4 19 4 30 1 16 -6
16 -5 -2 9 -11 8 -17 19 -12 23 4 4 7 2 7 -4 0 -6 10 -9 23 -6 12 3 34 6 49 7
15 0 25 4 22 9 -3 4 2 8 10 8 9 0 16 -5 16 -12 0 -6 3 -8 6 -5 4 4 2 13 -4 20
-12 14 -6 16 41 18 9 0 15 4 12 9 -3 4 10 7 29 6 23 -1 32 3 29 11 -3 7 -10
13 -16 13 -6 0 -8 3 -5 6 4 3 16 0 29 -6 19 -11 21 -10 16 4 -3 8 -1 18 5 22
6 4 8 3 4 -4 -3 -6 -2 -13 4 -17 5 -3 10 1 10 9 0 9 6 13 14 10 8 -3 17 -1 21
5 3 6 1 11 -6 11 -7 0 -9 3 -6 6 4 4 13 1 22 -6 13 -11 14 -10 9 5 -5 13 -4
16 4 11 6 -4 22 -1 34 6 13 7 26 11 30 10 4 -1 5 5 2 13 -4 8 -11 12 -17 8 -6
-4 -7 -1 -3 6 5 7 11 10 14 7 3 -3 12 0 20 7 13 10 14 9 7 -2 -6 -10 -4 -12 4
-7 7 5 10 15 7 23 -4 9 -2 11 7 6 22 -14 35 -11 32 7 -4 21 19 45 34 35 7 -4
8 1 4 12 -6 16 -5 17 12 3 17 -14 18 -14 6 9 -7 13 -8 21 -3 17 13 -8 44 22
37 35 -4 5 -1 9 5 9 7 0 9 -8 5 -20 -4 -11 -2 -20 4 -20 6 0 11 7 11 15 0 8 6
12 13 9 8 -3 14 2 14 11 0 10 -6 14 -16 10 -11 -3 -10 0 3 10 27 21 35 19 33
-7 -1 -13 -13 -33 -27 -46 -14 -13 -18 -20 -10 -16 19 11 44 15 35 6 -4 -4
-12 -7 -18 -7 -7 0 -12 -6 -12 -14 0 -8 -7 -16 -15 -18 -13 -4 -13 -3 0 6 8 6
10 11 4 11 -19 0 -24 -13 -11 -28 10 -13 9 -14 -1 -8 -9 5 -15 1 -19 -14 -3
-12 -11 -19 -18 -16 -7 2 -21 -5 -32 -16 -10 -12 -12 -18 -5 -14 14 9 17 -10
2 -19 -6 -4 -7 -11 -4 -17 5 -7 2 -8 -5 -3 -15 8 -53 -29 -43 -41 4 -5 0 -3
-9 4 -13 10 -19 8 -33 -7 -10 -11 -15 -24 -12 -30 8 -12 -30 -25 -46 -15 -8 5
-7 0 2 -11 14 -17 13 -18 -8 -13 -20 6 -22 4 -10 -10 8 -9 8 -13 1 -9 -18 11
-45 -4 -38 -21 5 -13 3 -13 -13 1 -18 16 -19 16 -17 -5 2 -27 -33 -50 -52 -35
-9 6 -11 3 -8 -10 2 -12 -2 -20 -10 -20 -7 0 -11 7 -8 16 3 12 2 12 -7 -2 -6
-9 -8 -22 -4 -28 4 -8 1 -8 -12 -1 -21 11 -44 6 -44 -10 0 -6 8 -5 18 3 15 13
16 12 3 -4 -10 -12 -17 -15 -25 -7 -17 17 -29 11 -15 -7 7 -10 9 -15 5 -11 -5
4 -15 0 -23 -10 -13 -15 -13 -15 -8 8 l6 25 -14 -24 c-10 -17 -16 -20 -19 -10
-5 12 -7 12 -19 0 -12 -12 -12 -13 0 -6 9 5 12 4 8 -3 -4 -5 -17 -8 -30 -5
-18 4 -19 3 -7 -7 12 -10 11 -11 -7 -7 -13 3 -26 0 -30 -5 -4 -7 -1 -8 7 -3 9
5 11 4 6 -4 -6 -9 -11 -9 -21 -1 -10 8 -15 8 -21 -1 -4 -8 -3 -9 4 -5 8 5 10
2 6 -8 -5 -14 -8 -14 -21 -1 -18 19 -27 19 -20 1 4 -9 -4 -16 -24 -20 -20 -4
-28 -10 -23 -17 4 -8 3 -9 -5 -5 -6 4 -9 11 -6 16 3 5 1 12 -5 15 -6 4 -9 1
-8 -7 2 -7 -5 -12 -14 -12 -10 1 -18 -5 -18 -13 0 -8 -5 -11 -10 -8 -6 4 -7
12 -3 18 4 7 0 6 -10 -2 -9 -7 -15 -17 -12 -21 8 -12 -39 2 -47 14 -5 7 -8 5
-8 -5 0 -8 6 -21 13 -29 6 -8 3 -7 -9 3 -18 15 -23 16 -33 3 -14 -17 -44 -10
-34 8 4 6 -1 5 -10 -2 -9 -8 -21 -11 -26 -8 -5 4 -12 2 -15 -3 -4 -5 -14 -8
-24 -6 -9 1 -22 -2 -29 -7 -7 -5 -17 -7 -23 -3 -5 3 -10 2 -10 -4 0 -5 6 -11
13 -14 6 -2 -3 -4 -20 -3 -18 0 -33 3 -33 7 0 3 -7 6 -15 6 -13 0 -12 -4 2
-21 17 -20 17 -20 0 -6 -16 12 -20 12 -28 -1 -7 -11 -9 -11 -9 0 0 11 -3 11
-17 0 -9 -8 -14 -9 -10 -3 4 7 -2 14 -14 17 -17 5 -20 2 -16 -14 4 -16 3 -18
-9 -8 -7 6 -12 14 -10 18 3 4 -8 6 -22 5 -15 0 -30 4 -35 10 -4 7 -9 3 -13
-11 -4 -13 -10 -20 -15 -18 -4 3 -6 13 -3 23 5 14 4 14 -4 2 -6 -8 -9 -17 -6
-21 2 -4 -1 -11 -7 -15 -8 -4 -9 -3 -5 4 4 7 2 12 -4 12 -6 0 -8 6 -4 13 4 6
4 9 -1 5 -4 -4 -14 -3 -21 3 -8 7 -14 7 -19 -1 -3 -5 -11 -10 -16 -10 -6 0 -7
6 -3 13 5 8 2 8 -9 -2 -12 -10 -21 -10 -30 -3 -12 10 -40 2 -38 -12 1 -3 -2
-6 -6 -5 -5 0 -7 6 -5 14 1 8 -5 13 -17 12 -11 0 -17 -5 -15 -9 3 -4 1 -8 -4
-8 -6 0 -13 7 -16 16 -3 8 -11 12 -17 8 -9 -5 -8 -10 2 -18 15 -12 25 -41 11
-32 -4 2 -14 1 -20 -3 -10 -6 -9 -13 5 -30 17 -21 20 -21 32 -7 11 13 10 15
-8 11 -12 -2 -21 0 -21 6 0 5 12 7 26 5 28 -5 45 -16 26 -16 -7 0 -12 -5 -12
-12 0 -6 3 -9 6 -5 4 3 21 -1 38 -9 l31 -15 -25 21 -25 21 27 -12 c16 -7 28
-17 28 -23 0 -6 5 -4 10 4 8 12 10 12 10 1 0 -8 7 -11 19 -8 10 2 25 0 34 -4
11 -7 18 -5 24 6 7 12 11 11 22 -8 13 -20 13 -21 -2 -8 -13 10 -17 10 -17 1 0
-7 -7 -10 -15 -7 -8 4 -17 3 -19 -2 -3 -4 32 -7 77 -7 62 1 81 4 79 14 -1 8 2
11 8 7 6 -3 7 -11 4 -17 -4 -6 1 -8 12 -6 11 2 18 10 16 17 -1 7 2 10 8 6 6
-3 8 -10 5 -14 -6 -11 156 -8 174 3 9 6 12 5 7 -2 -5 -8 25 -10 103 -9 60 1
107 5 105 9 -3 5 0 8 5 8 6 0 11 5 11 12 0 9 -3 9 -12 0 -15 -15 -28 -16 -28
-2 0 6 3 9 8 9 4 -1 9 0 12 1 20 8 46 7 56 -1 8 -7 14 -6 19 1 4 6 16 8 27 4
18 -5 19 -4 7 9 -13 14 -16 13 -31 0 -16 -15 -18 -15 -18 2 0 10 3 15 7 12 3
-4 12 -2 20 4 7 6 13 8 13 4 0 -4 11 0 25 9 14 9 30 14 34 11 5 -3 11 -2 14 2
2 5 2 2 1 -5 -5 -17 6 -15 23 6 14 16 14 16 9 -1 -4 -13 -2 -16 7 -10 6 4 19
8 27 10 8 1 16 7 18 13 2 5 9 7 14 4 7 -5 8 -2 3 6 -6 10 -4 12 9 7 14 -5 17
-3 13 8 -4 8 -1 17 5 21 7 4 8 3 4 -4 -4 -7 -3 -12 3 -12 6 0 8 -8 5 -17 -5
-14 -4 -15 4 -4 6 8 8 20 5 28 -4 11 0 11 23 3 27 -11 28 -10 11 8 -17 19 -17
19 8 15 15 -3 25 -1 25 6 0 6 5 11 11 11 5 0 7 -5 3 -12 -5 -7 -3 -8 5 -4 7 5
10 14 8 20 -3 7 1 13 9 13 7 0 10 -5 7 -11 -4 -6 0 -5 9 1 8 7 17 11 20 8 3
-3 11 2 19 12 8 9 9 14 4 11 -6 -4 -17 -3 -25 3 -11 6 -5 8 17 5 18 -2 30 1
27 5 -3 5 2 9 12 9 14 0 15 2 3 17 -8 9 -9 14 -3 10 6 -3 30 1 55 9 47 17 70
31 29 19 l-25 -7 25 24 c14 14 33 22 45 20 14 -3 16 -1 8 5 -9 7 -5 16 17 35
17 14 32 22 36 17 3 -5 -6 -14 -20 -20 -14 -7 -23 -16 -19 -22 3 -5 8 -5 12 0
3 5 20 19 36 32 17 13 22 21 13 18 -10 -4 -18 -2 -18 3 0 6 7 10 15 10 8 0 15
7 15 16 0 11 5 14 16 10 12 -4 15 -2 10 9 -3 9 2 20 13 27 11 6 18 16 17 22
-2 6 -1 8 1 4 8 -14 25 -8 20 6 -4 11 -1 13 10 9 9 -4 14 -2 10 3 -3 6 5 23
19 40 l25 29 -16 -30 c-12 -20 -12 -24 -3 -13 8 10 18 14 22 10 4 -4 7 -2 6 3
-5 22 1 35 14 35 9 0 12 7 9 19 -3 10 1 22 8 27 9 5 10 2 5 -12 -6 -15 -5 -16
5 -7 9 9 9 16 1 26 -13 16 -6 28 12 21 7 -3 19 2 26 11 7 8 9 15 5 15 -4 0 -1
8 6 18 13 15 12 16 -3 3 -10 -7 -15 -18 -11 -24 4 -6 1 -7 -7 -2 -9 6 -11 4
-5 -5 6 -9 4 -11 -4 -6 -9 6 -8 13 6 29 22 27 35 37 43 32 3 -2 5 11 5 28 0
18 6 32 15 34 13 4 13 3 0 -6 -9 -7 -10 -11 -3 -11 16 0 26 17 14 24 -10 7 -9
25 2 43 5 7 5 19 1 25 -6 11 -4 11 7 1 16 -15 33 -17 24 -3 -3 6 1 17 9 26 13
12 14 20 4 37 -10 19 -9 20 4 10 12 -10 15 -10 15 2 0 8 -3 15 -7 15 -10 0
-10 39 1 45 5 3 6 -1 3 -9 -3 -9 -1 -16 6 -16 6 0 8 5 5 10 -3 6 0 10 7 10 10
0 9 3 -2 10 -8 5 -11 12 -7 16 3 4 13 2 20 -4 10 -9 14 -8 14 3 0 7 -3 14 -6
13 -21 -2 -30 4 -28 21 0 11 4 18 8 15 4 -2 10 5 14 16 4 11 12 18 18 14 7 -3
3 2 -7 10 -18 15 -15 20 9 17 6 -1 1 6 -10 15 -20 16 -20 16 4 11 18 -4 21 -3
12 6 -13 13 -15 31 -2 23 12 -8 7 24 -5 32 -5 4 -10 14 -12 22 -3 11 3 9 20
-5 13 -11 17 -13 11 -5 -18 20 -16 35 2 20 10 -9 15 -9 15 -1 0 6 -4 12 -10
12 -5 1 -14 2 -20 3 -5 0 -10 4 -10 9 0 4 2 6 4 5 6 -4 46 48 46 58 0 5 -7 -2
-16 -14 -8 -12 -20 -22 -27 -22 -8 0 -7 4 1 12 10 10 8 16 -10 30 -19 15 -19
17 -4 11 13 -4 17 -3 12 5 -3 6 3 13 14 17 11 3 20 11 20 16 0 13 -18 11 -23
-3 -3 -10 -7 -10 -17 -1 -9 9 -8 14 9 22 24 13 28 31 7 31 -18 0 -29 27 -14
36 6 4 17 -1 25 -11 7 -11 13 -15 13 -9 -1 13 -30 50 -37 46 -4 -1 -8 4 -9 13
-1 8 2 13 7 9 5 -3 6 -10 3 -16 -4 -7 -2 -8 4 -4 6 4 8 14 5 24 -6 14 -4 15 9
4 13 -10 18 -10 24 -1 4 8 3 9 -5 5 -6 -4 -14 0 -18 11 -4 10 -13 23 -21 29
-13 9 -13 13 1 25 13 12 13 15 -7 26 -11 7 -15 12 -8 13 6 0 12 9 12 19 0 11
6 22 13 24 10 4 10 6 0 6 -7 1 -14 0 -16 -1 -5 -5 -35 27 -32 32 2 3 -1 12 -6
20 -6 11 -8 5 -4 -17 3 -20 1 -33 -5 -33 -6 0 -8 5 -4 11 4 7 2 10 -5 8 -7 -3
-11 -7 -10 -9 1 -3 -3 -15 -9 -27 -8 -14 -9 -24 -2 -28 6 -4 7 -11 4 -17 -5
-7 -12 -4 -22 8 -14 18 -14 18 -8 1 3 -11 3 -24 -1 -30 -14 -23 -12 -39 5 -33
10 4 6 -2 -7 -13 -22 -17 -23 -19 -6 -28 16 -9 14 -12 -14 -24 -17 -8 -31 -18
-31 -22 0 -5 6 -5 13 -2 6 4 4 0 -5 -8 -10 -8 -15 -17 -11 -20 3 -4 1 -7 -5
-7 -6 0 -9 -7 -5 -17 4 -10 2 -14 -4 -10 -13 8 -53 -20 -53 -38 0 -8 6 -13 13
-12 6 2 2 -1 -10 -7 -13 -5 -23 -14 -23 -19 0 -4 5 -5 12 -1 7 4 8 3 4 -5 -6
-9 -11 -9 -24 1 -10 8 -13 9 -9 1 4 -7 0 -16 -9 -21 -11 -6 -15 -16 -10 -27 6
-16 4 -16 -11 -4 -11 9 -14 10 -9 2 5 -9 1 -13 -11 -14 -16 0 -16 -1 2 -9 18
-8 18 -9 -5 -10 -14 -2 -29 -2 -34 -1 -5 1 -4 -4 3 -13 9 -11 9 -16 0 -22 -8
-4 -9 -3 -5 4 4 7 2 12 -3 12 -6 0 -11 -7 -11 -15 0 -9 -6 -12 -15 -9 -9 4
-15 0 -15 -10 0 -8 -9 -20 -20 -26 -11 -6 -19 -16 -17 -22 1 -6 -5 -13 -13
-15 -12 -4 -12 -3 -2 5 11 7 11 10 -2 15 -9 4 -15 3 -15 -1 3 -18 -2 -32 -12
-32 -5 0 -7 6 -3 13 6 8 3 8 -9 -1 -9 -8 -19 -22 -22 -31 -3 -10 -17 -23 -31
-29 -39 -18 -42 -14 -6 8 17 11 32 23 32 26 0 3 -11 -1 -25 -10 -14 -9 -30
-14 -36 -11 -5 4 -9 3 -8 -2 3 -19 -2 -33 -12 -33 -5 0 -7 5 -3 12 5 7 3 8 -5
4 -7 -5 -10 -14 -7 -22 3 -7 0 -16 -6 -20 -6 -4 -8 -3 -4 4 3 6 2 13 -4 17 -5
3 -10 -1 -10 -9 0 -10 -6 -13 -17 -9 -10 4 -14 2 -9 -5 3 -6 2 -13 -3 -16 -5
-4 -12 2 -14 11 -4 17 -5 17 -6 1 0 -10 -6 -18 -12 -18 -5 0 -7 5 -3 12 4 7 3
8 -5 4 -8 -5 -9 -12 -2 -20 7 -8 0 -11 -25 -10 -19 1 -37 -2 -40 -7 -3 -5 -10
-6 -16 -3 -7 4 -8 2 -4 -5 6 -9 11 -9 21 -1 10 8 15 8 21 -1 4 -7 3 -9 -4 -5
-6 3 -13 2 -17 -4 -4 -6 -10 -8 -15 -5 -4 3 -13 -2 -20 -10 -7 -8 -17 -12 -24
-8 -17 11 -37 12 -30 2 3 -5 10 -6 16 -3 7 4 8 2 4 -4 -5 -9 -13 -9 -28 -1
-13 7 -18 7 -14 1 3 -6 2 -13 -4 -17 -5 -3 -10 2 -10 12 0 15 -2 15 -9 3 -6
-8 -7 -19 -3 -25 3 -5 -2 -3 -12 5 -21 16 -49 23 -40 9 3 -5 10 -7 15 -4 5 4
9 -1 9 -10 0 -9 -4 -14 -9 -11 -5 4 -12 0 -14 -6 -3 -8 -6 -6 -6 5 -1 10 -6
15 -11 12 -6 -4 -8 -11 -5 -16 8 -12 -2 -12 -25 1 -13 7 -21 5 -31 -7 -12 -14
-12 -16 0 -8 9 5 12 4 7 -3 -4 -8 -15 -8 -31 -2 -17 6 -27 5 -35 -5 -6 -7 -24
-12 -40 -11 -23 2 -27 -1 -18 -11 8 -11 7 -12 -7 -7 -12 5 -16 4 -12 -3 7 -11
-34 -10 -52 2 -6 3 -11 2 -11 -4 0 -5 -9 -8 -20 -6 -19 4 -28 -9 -12 -18 4 -2
2 -2 -5 -1 -7 2 -15 -1 -18 -6 -3 -5 -12 -7 -21 -3 -12 4 -12 8 -2 22 11 14
11 14 -3 4 -13 -11 -42 -19 -72 -22 -5 -1 -5 -7 -1 -13 6 -10 5 -10 -8 -1 -8
7 -18 10 -21 6 -4 -3 -15 0 -24 8 -15 11 -16 11 -5 -1 16 -18 15 -27 -3 -27
-8 0 -12 4 -10 8 7 10 -22 5 -32 -6 -4 -4 -2 -5 6 0 9 5 12 4 8 -3 -4 -5 -15
-9 -25 -8 -9 2 -21 -2 -25 -8 -6 -7 -7 -6 -4 4 2 8 10 14 16 12 7 -1 10 2 6 8
-4 7 -12 7 -25 0 -26 -14 -57 -13 -64 3 -3 6 -4 3 -1 -9 4 -14 0 -21 -9 -21
-9 0 -13 4 -11 7 3 4 -7 8 -20 8 -22 0 -24 -3 -13 -17 10 -13 10 -14 -2 -4
-18 17 -33 17 -25 1 4 -7 -4 -2 -16 12 -12 14 -20 18 -17 10 3 -8 -1 -21 -9
-29 -13 -12 -14 -11 -9 7 4 11 2 23 -4 27 -6 4 -9 1 -8 -7 2 -7 -4 -13 -12
-13 -8 0 -14 8 -14 17 1 10 -3 15 -8 12 -5 -4 -7 -16 -4 -28 5 -20 4 -20 -9
-2 -8 10 -12 23 -9 27 9 16 -3 10 -17 -8 -10 -11 -10 -14 -1 -9 7 4 12 2 12
-4 0 -7 -6 -10 -14 -7 -7 3 -18 1 -23 -4 -6 -6 -10 -4 -10 6 0 8 5 15 10 15 6
0 7 3 4 7 -4 3 -17 -2 -29 -13 -12 -10 -18 -14 -15 -8 4 7 0 15 -9 18 -8 3
-13 2 -10 -3 3 -5 -1 -12 -10 -15 -9 -3 -12 -2 -8 5 4 7 -4 9 -25 6 -21 -4
-29 -2 -24 6 4 6 0 8 -10 4 -10 -4 -17 -2 -17 4 0 6 -9 9 -20 6 -19 -5 -21 -2
-24 36 -1 6 -5 15 -11 19 -5 4 0 6 13 5 12 0 22 -5 22 -10 0 -4 6 -5 12 0 7 4
27 8 43 8 17 0 36 5 44 9 9 6 12 5 8 -1 -4 -6 4 -13 18 -15 13 -3 22 -1 19 3
-3 5 2 9 10 9 9 0 16 5 16 12 0 6 3 8 6 5 4 -4 1 -13 -6 -22 -19 -23 0 -18 28
8 14 12 22 16 18 10 -4 -8 -1 -13 9 -13 10 0 13 5 9 12 -4 7 -3 8 4 4 7 -4 12
-1 12 6 0 9 3 9 10 -2 5 -8 10 -11 10 -6 0 6 5 5 12 -2 7 -7 17 -12 23 -12 5
0 3 5 -5 10 -11 7 -11 10 -2 10 7 0 10 6 7 13 -4 6 2 1 13 -12 14 -18 21 -21
27 -11 5 9 4 11 -3 6 -7 -4 -12 -2 -12 3 0 11 16 15 58 13 21 -1 22 1 11 14
-9 11 -3 10 23 -4 32 -18 37 -19 42 -5 5 12 9 13 20 4 12 -10 14 -8 12 11 -2
17 2 24 16 24 12 0 17 -5 13 -15 -4 -11 -2 -11 8 -3 8 7 18 8 23 4 4 -4 2 1
-5 11 -12 15 -12 17 3 11 10 -4 16 -1 16 7 0 7 6 5 14 -7 14 -18 15 -18 21 -1
4 9 16 17 27 17 10 0 17 4 13 9 -3 5 0 13 6 17 8 4 9 3 5 -4 -4 -7 -1 -12 9
-12 10 0 13 5 9 13 -4 6 3 3 15 -8 12 -11 22 -15 21 -10 -2 6 -2 17 -1 25 1
13 2 13 11 0 6 -10 10 -11 10 -2 0 6 11 12 24 12 14 0 28 4 31 10 3 5 0 7 -8
4 -8 -3 -18 -1 -21 4 -3 5 6 8 19 6 14 -1 25 3 25 9 0 8 4 7 9 -2 6 -9 14 -10
22 -5 8 5 17 9 21 9 3 0 9 3 13 7 9 9 -16 5 -32 -5 -7 -5 -13 -4 -13 1 0 13
19 19 57 18 26 -1 30 2 22 15 -6 12 -4 16 9 16 39 0 53 3 48 11 -3 5 1 9 8 9
9 0 12 -7 8 -16 -5 -13 -2 -12 12 2 10 10 25 16 33 13 8 -3 11 -1 8 4 -3 6 -1
10 6 10 9 0 9 4 -1 15 -10 12 -7 13 18 5 27 -7 30 -6 27 12 -4 16 -2 18 11 7
12 -10 13 -9 7 7 -6 17 -5 18 11 5 16 -13 17 -13 14 5 -2 14 2 19 20 18 20 -1
27 7 23 29 -1 5 3 6 9 2 6 -3 8 -11 5 -16 -3 -5 1 -6 9 -3 9 3 12 12 8 22 -5
15 -3 15 10 4 13 -10 18 -10 24 -1 4 7 3 9 -3 6 -5 -3 -10 0 -10 8 0 19 2 19
22 -1 15 -16 16 -16 13 2 -2 12 2 18 11 16 7 -2 21 4 31 13 9 8 20 12 25 8 4
-5 5 -3 2 3 -4 7 0 14 8 18 8 3 15 11 15 17 0 8 -5 7 -17 -2 -15 -11 -16 -11
-6 1 16 17 43 22 43 7 0 -5 3 -7 6 -4 4 4 1 14 -7 24 -9 11 -10 14 -1 9 7 -4
15 -1 18 9 4 9 13 14 20 11 9 -3 14 1 14 12 0 13 2 14 9 4 7 -11 9 -11 14 2 3
8 1 17 -6 20 -7 4 0 4 15 3 25 -4 26 -2 16 17 -11 20 -10 20 8 6 10 -8 16 -10
12 -6 -4 5 0 15 10 23 9 8 11 12 5 8 -7 -3 -13 -1 -13 4 0 10 20 15 41 13 4
-1 5 7 2 17 -2 10 4 23 14 31 15 12 16 12 6 0 -7 -8 -13 -18 -13 -24 0 -5 6
-1 14 10 9 12 11 23 5 30 -11 14 -1 24 17 17 8 -3 11 -10 7 -16 -4 -6 -1 -7 6
-2 9 5 10 10 2 18 -7 7 -2 16 15 29 13 11 22 23 19 28 -3 5 3 13 12 19 10 6
13 11 7 11 -5 0 -15 -5 -20 -10 -7 -7 -11 -6 -11 5 0 8 2 13 5 10 7 -7 42 14
42 26 0 6 -4 8 -9 5 -5 -4 -7 3 -4 15 3 11 9 17 12 12 9 -11 34 -16 27 -4 -4
5 -2 13 4 16 8 5 7 11 -1 21 -11 14 -2 19 24 15 5 -1 6 3 2 9 -3 6 -11 7 -17
4 -6 -4 -6 2 1 15 7 11 14 21 17 21 3 0 2 -5 -2 -12 -4 -6 -3 -8 4 -5 12 8 10
32 -3 44 -4 4 -5 2 0 -6 6 -10 4 -12 -4 -7 -8 6 -9 12 -2 20 6 7 7 17 3 21 -4
5 -1 5 6 1 7 -4 9 -13 6 -19 -4 -7 -3 -8 2 -4 5 5 10 13 10 18 1 5 2 14 3 20
0 5 7 7 14 3 9 -6 9 -5 0 7 -10 12 -9 20 4 39 9 13 11 20 5 16 -7 -4 -12 -2
-12 3 0 6 7 11 15 11 8 0 15 4 15 10 0 5 -8 7 -17 4 -17 -5 -17 -5 0 9 20 17
22 28 5 23 -7 -1 -10 -1 -5 2 4 2 12 12 18 23 7 15 6 23 -6 35 -11 11 -13 20
-5 28 5 7 7 16 3 19 -3 4 5 7 18 7 13 0 20 4 14 8 -5 4 -17 16 -25 27 -15 20
-15 20 15 1 20 -13 26 -15 18 -4 -7 8 -9 19 -5 23 4 5 2 5 -4 2 -6 -4 -22 2
-34 13 -13 11 -18 20 -12 20 6 0 14 -4 17 -10 3 -5 12 -10 18 -10 7 0 -1 9
-17 19 -17 11 -33 18 -37 15 -4 -2 -6 9 -5 26 1 16 0 27 -3 25 -9 -10 -29 17
-24 33 4 10 -3 7 -16 -8 -12 -14 -20 -20 -16 -13 3 7 -6 22 -20 35 -14 12 -25
25 -25 30 0 4 9 -1 20 -12 11 -11 26 -20 33 -20 6 0 3 6 -8 12 -23 13 -51 49
-47 61 1 5 -2 6 -7 3 -5 -4 -13 -2 -16 4 -5 8 -11 8 -20 0 -10 -9 -13 -7 -10
7 4 29 -14 46 -34 31 -9 -7 -13 -9 -9 -4 8 10 -11 51 -19 42 -3 -3 -14 -1 -24
5 -14 7 -19 6 -20 -3z m16 -38 c-3 -5 -12 -10 -18 -10 -7 0 -6 4 3 10 19 12
23 12 15 0z m80 -10 c3 -5 1 -10 -4 -10 -6 0 -11 5 -11 10 0 6 2 10 4 10 3 0
8 -4 11 -10z m61 -68 c-6 -5 -36 23 -36 34 0 4 9 -1 20 -11 11 -10 18 -20 16
-23z m92 -107 c-3 -3 -9 2 -12 12 -6 14 -5 15 5 6 7 -7 10 -15 7 -18z m-277
-18 c-10 -9 -11 -8 -5 6 3 10 9 15 12 12 3 -3 0 -11 -7 -18z m332 -204 c-3 -7
-6 -13 -8 -13 -2 0 -5 6 -8 13 -3 8 1 14 8 14 7 0 11 -6 8 -14z m-458 -103 c3
-6 -1 -7 -9 -4 -18 7 -21 14 -7 14 6 0 13 -4 16 -10z m415 -40 c0 -5 -5 -10
-11 -10 -5 0 -7 5 -4 10 3 6 8 10 11 10 2 0 4 -4 4 -10z m-40 -154 c0 -3 -4
-8 -10 -11 -5 -3 -10 -1 -10 4 0 6 5 11 10 11 6 0 10 -2 10 -4z m-70 -120 c0
-11 -19 -15 -25 -6 -3 5 1 10 9 10 9 0 16 -2 16 -4z m-615 -16 c3 -5 -1 -10
-10 -10 -9 0 -13 5 -10 10 3 6 8 10 10 10 2 0 7 -4 10 -10z m935 0 c0 -5 -5
-10 -11 -10 -5 0 -7 5 -4 10 3 6 8 10 11 10 2 0 4 -4 4 -10z m-1010 -50 c0 -5
-5 -10 -11 -10 -5 0 -7 5 -4 10 3 6 8 10 11 10 2 0 4 -4 4 -10z m1110 0 c0 -5
-2 -10 -4 -10 -3 0 -8 5 -11 10 -3 6 -1 10 4 10 6 0 11 -4 11 -10z m-200 -150
c-8 -5 -19 -10 -25 -10 -5 0 -3 5 5 10 8 5 20 10 25 10 6 0 3 -5 -5 -10z
m-1346 -91 c-3 -5 -10 -7 -15 -3 -5 3 -7 10 -3 15 3 5 10 7 15 3 5 -3 7 -10 3
-15z m806 -23 c0 -3 -4 -8 -10 -11 -5 -3 -10 -1 -10 4 0 6 5 11 10 11 6 0 10
-2 10 -4z m-1040 -41 c0 -2 -10 -9 -22 -15 -22 -11 -22 -10 -4 4 21 17 26 19
26 11z m-378 -107 c-7 -7 -12 -8 -12 -2 0 14 12 26 19 19 2 -3 -1 -11 -7 -17z
m1136 -7 c11 -7 11 -9 -1 -14 -16 -6 -27 0 -27 15 0 10 11 10 28 -1z m-1768
-11 c0 -5 -5 -10 -11 -10 -5 0 -7 5 -4 10 3 6 8 10 11 10 2 0 4 -4 4 -10z
m199 -12 c-12 -23 -21 -24 -12 -1 5 12 3 14 -7 8 -8 -5 -11 -4 -7 2 3 5 13 10
21 10 11 0 13 -5 5 -19z m1042 -185 c8 -10 9 -14 2 -10 -6 4 -14 3 -18 -3 -8
-13 -25 -13 -25 0 0 6 6 9 13 8 6 -2 11 3 10 10 -4 17 2 15 18 -5z m1474 -2
c3 -5 2 -12 -3 -15 -5 -3 -9 1 -9 9 0 17 3 19 12 6z m-1018 -60 c0 -11 -5 -18
-9 -15 -4 3 -5 11 -1 19 7 21 12 19 10 -4z m-33 -9 c3 -5 -1 -9 -9 -9 -8 0
-12 4 -9 9 3 4 7 8 9 8 2 0 6 -4 9 -8z m-953 -35 c-10 -9 -11 -8 -5 6 3 10 9
15 12 12 3 -3 0 -11 -7 -18z m1789 11 c0 -11 -12 -10 -30 2 -12 7 -10 9 8 7
12 0 22 -5 22 -9z m-1773 -32 c0 -8 -6 -12 -15 -9 -11 5 -11 7 0 14 7 5 13 9
14 9 0 0 1 -6 1 -14z m713 4 c0 -16 -17 -20 -28 -7 -8 10 -6 13 9 14 10 1 19
-2 19 -7z m1061 -13 c-10 -9 -11 -8 -5 6 3 10 9 15 12 12 3 -3 0 -11 -7 -18z
m-2321 -213 c0 -8 -19 -13 -24 -6 -3 5 1 9 9 9 8 0 15 -2 15 -3z m2100 -38 c0
-2 -8 -10 -17 -17 -16 -13 -17 -12 -4 4 13 16 21 21 21 13z m-2000 -26 c0 -5
-2 -10 -4 -10 -3 0 -8 5 -11 10 -3 6 -1 10 4 10 6 0 11 -4 11 -10z m1645 -40
c-3 -5 -12 -10 -18 -10 -7 0 -6 4 3 10 19 12 23 12 15 0z m-112 -51 c-8 -8
-13 -7 -18 2 -5 8 -4 10 3 5 7 -4 12 -2 12 5 0 7 3 9 7 6 4 -4 2 -12 -4 -18z
m-181 -33 c7 4 8 2 4 -5 -9 -13 -26 -5 -25 12 0 9 2 8 6 -1 2 -6 10 -9 15 -6z
m-579 -19 c3 -7 -3 -13 -14 -14 -15 -1 -16 1 -6 12 15 18 14 18 20 2z m-93 -7
c0 -5 -4 -10 -10 -10 -5 0 -10 5 -10 10 0 6 5 10 10 10 6 0 10 -4 10 -10z
m534 -208 c3 -5 -1 -9 -9 -9 -8 0 -12 4 -9 9 3 4 7 8 9 8 2 0 6 -4 9 -8z m-60
-13 c3 -3 -5 -5 -19 -5 -13 0 -22 3 -19 7 4 8 30 6 38 -2z m-518 -28 c0 -11
-5 -17 -13 -14 -10 4 -11 9 -2 19 15 18 15 18 15 -5z m144 -4 c0 -7 -4 -6 -10
3 -8 12 -10 12 -10 1 0 -8 -3 -12 -6 -8 -9 9 6 28 17 22 5 -4 9 -12 9 -18z
m830 3 c-12 -23 -16 -24 -26 -8 -4 6 -3 8 3 5 6 -4 13 0 17 8 3 8 8 15 11 15
3 0 1 -9 -5 -20z m-875 1 c3 -5 2 -12 -3 -15 -5 -3 -9 1 -9 9 0 17 3 19 12 6z
m505 -102 c0 -5 -4 -9 -8 -9 -5 0 -9 7 -9 15 0 8 4 12 9 9 4 -3 8 -9 8 -15z
m-375 1 c3 -6 -1 -7 -9 -4 -18 7 -21 14 -7 14 6 0 13 -4 16 -10z m469 -1 c3
-3 -6 -6 -19 -7 -13 -1 -26 2 -29 6 -5 8 40 9 48 1z"/>
<path d="M2366 2407 c3 -10 9 -15 12 -12 3 3 0 11 -7 18 -10 9 -11 8 -5 -6z"/>
<path d="M645 2320 c-3 -6 1 -7 9 -4 18 7 21 14 7 14 -6 0 -13 -4 -16 -10z"/>
<path d="M2661 2263 c-1 -17 16 -25 25 -12 4 7 3 9 -4 5 -5 -3 -13 0 -15 6 -4
9 -6 10 -6 1z"/>
<path d="M907 2189 c7 -7 15 -10 18 -7 3 3 -2 9 -12 12 -14 6 -15 5 -6 -5z"/>
<path d="M1773 2165 c0 -8 4 -12 9 -9 5 3 6 10 3 15 -9 13 -12 11 -12 -6z"/>
<path d="M2701 2106 c-8 -10 -9 -16 -1 -21 5 -3 10 1 10 10 0 10 5 13 12 9 7
-4 8 -3 4 4 -9 15 -11 15 -25 -2z"/>
<path d="M2026 2058 c3 -5 10 -6 15 -3 13 9 11 12 -6 12 -8 0 -12 -4 -9 -9z"/>
<path d="M1386 1933 c-6 -14 -5 -15 5 -6 7 7 10 15 7 18 -3 3 -9 -2 -12 -12z"/>
<path d="M1910 1939 c0 -5 5 -7 10 -4 6 3 10 8 10 11 0 2 -4 4 -10 4 -5 0 -10
-5 -10 -11z"/>
<path d="M1136 1866 c6 -15 4 -17 -6 -11 -9 6 -11 4 -5 -4 5 -9 10 -10 18 -2
8 8 7 14 -2 24 -10 10 -11 8 -5 -7z"/>
<path d="M837 1853 c-10 -9 -9 -23 1 -23 5 0 9 7 9 15 0 17 -1 18 -10 8z"/>
<path d="M1800 1838 c-10 -21 -10 -21 3 -6 8 10 18 14 22 10 5 -4 5 -1 1 6
-10 17 -14 15 -26 -10z"/>
<path d="M946 1832 c-3 -5 1 -9 9 -9 8 0 15 4 15 9 0 4 -4 8 -9 8 -6 0 -12 -4
-15 -8z"/>
<path d="M2875 1740 c-3 -5 -1 -10 4 -10 6 0 11 5 11 10 0 6 -2 10 -4 10 -3 0
-8 -4 -11 -10z"/>
<path d="M29 1723 c-13 -16 -12 -17 4 -4 16 13 21 21 13 21 -2 0 -10 -8 -17
-17z"/>
<path d="M2930 1729 c0 -5 5 -7 10 -4 6 3 10 8 10 11 0 2 -4 4 -10 4 -5 0 -10
-5 -10 -11z"/>
<path d="M1975 1680 c-3 -5 -2 -10 4 -10 5 0 13 5 16 10 3 6 2 10 -4 10 -5 0
-13 -4 -16 -10z"/>
<path d="M1535 1649 c-4 -6 -5 -12 -2 -15 2 -3 7 2 10 11 7 17 1 20 -8 4z"/>
<path d="M2806 1528 c3 -5 10 -6 15 -3 13 9 11 12 -6 12 -8 0 -12 -4 -9 -9z"/>
<path d="M1189 1493 c-13 -16 -12 -17 4 -4 9 7 17 15 17 17 0 8 -8 3 -21 -13z"/>
<path d="M2991 1434 c0 -11 3 -14 6 -6 3 7 2 16 -1 19 -3 4 -6 -2 -5 -13z"/>
<path d="M776 1402 c-3 -5 1 -9 9 -9 8 0 12 4 9 9 -3 4 -7 8 -9 8 -2 0 -6 -4
-9 -8z"/>
<path d="M716 1388 c3 -5 10 -6 15 -3 13 9 11 12 -6 12 -8 0 -12 -4 -9 -9z"/>
<path d="M1510 1388 c0 -4 4 -8 9 -8 6 0 12 4 15 8 3 5 -1 9 -9 9 -8 0 -15 -4
-15 -9z"/>
<path d="M1470 1386 c0 -2 7 -7 16 -10 8 -3 12 -2 9 4 -6 10 -25 14 -25 6z"/>
<path d="M562 1366 c7 -8 15 -12 17 -11 5 6 -10 25 -20 25 -5 0 -4 -6 3 -14z"/>
<path d="M2974 1365 c-10 -8 -14 -15 -8 -15 6 0 17 7 24 15 16 19 9 19 -16 0z"/>
<path d="M415 1361 c-3 -5 -2 -12 3 -15 5 -3 9 1 9 9 0 17 -3 19 -12 6z"/>
<path d="M2310 1359 c0 -5 5 -7 10 -4 6 3 10 8 10 11 0 2 -4 4 -10 4 -5 0 -10
-5 -10 -11z"/>
<path d="M2986 1293 c-6 -14 -5 -15 5 -6 7 7 10 15 7 18 -3 3 -9 -2 -12 -12z"/>
<path d="M1211 1286 c-8 -10 -9 -16 -1 -21 5 -3 10 -5 11 -3 4 18 7 38 4 38
-1 0 -8 -6 -14 -14z"/>
<path d="M1047 1236 c-4 -11 -5 -21 -2 -24 3 -3 5 0 5 6 0 7 3 11 8 11 19 -3
32 2 32 12 0 8 -4 8 -14 0 -11 -9 -15 -9 -18 1 -3 7 -7 5 -11 -6z"/>
<path d="M983 1223 c-7 -3 -13 -10 -13 -16 0 -8 4 -7 12 1 15 15 32 16 23 2
-9 -14 1 -12 13 3 8 10 7 13 -6 14 -9 0 -23 -2 -29 -4z"/>
<path d="M876 1197 c3 -10 9 -15 12 -12 3 3 0 11 -7 18 -10 9 -11 8 -5 -6z"/>
<path d="M920 1194 c0 -8 5 -12 10 -9 6 4 8 11 5 16 -9 14 -15 11 -15 -7z"/>
<path d="M66 1158 c5 -7 2 -9 -9 -5 -12 4 -14 2 -10 -10 5 -13 3 -14 -15 -4
-12 7 -22 9 -22 7 0 -3 8 -10 18 -15 12 -6 23 -4 39 9 19 15 20 19 7 24 -10 4
-13 2 -8 -6z"/>
<path d="M670 1159 c0 -5 5 -7 10 -4 6 3 10 8 10 11 0 2 -4 4 -10 4 -5 0 -10
-5 -10 -11z"/>
<path d="M510 1150 c0 -5 5 -10 11 -10 5 0 7 5 4 10 -3 6 -8 10 -11 10 -2 0
-4 -4 -4 -10z"/>
<path d="M2930 1075 c-7 -8 -9 -15 -6 -15 4 0 14 7 22 15 9 8 11 15 6 15 -5 0
-15 -7 -22 -15z"/>
<path d="M2123 981 c0 -11 5 -18 9 -15 4 3 5 11 1 19 -7 21 -12 19 -10 -4z"/>
<path d="M1166 864 c-11 -8 -16 -14 -10 -14 13 0 39 18 34 24 -3 2 -14 -2 -24
-10z"/>
<path d="M945 851 c-3 -5 2 -17 11 -25 22 -22 31 -20 11 2 -10 10 -14 22 -10
25 3 4 4 7 0 7 -3 0 -8 -4 -12 -9z"/>
<path d="M975 850 c5 -8 42 -6 50 1 2 3 -8 5 -25 5 -16 0 -27 -3 -25 -6z"/>
<path d="M2846 852 c-3 -4 4 -9 15 -9 23 -2 25 3 4 10 -8 4 -16 3 -19 -1z"/>
<path d="M916 835 c4 -8 8 -15 10 -15 2 0 4 7 4 15 0 8 -4 15 -10 15 -5 0 -7
-7 -4 -15z"/>
<path d="M1646 833 c-6 -14 -5 -15 5 -6 7 7 10 15 7 18 -3 3 -9 -2 -12 -12z"/>
<path d="M990 799 c0 -5 5 -7 10 -4 6 3 10 8 10 11 0 2 -4 4 -10 4 -5 0 -10
-5 -10 -11z"/>
<path d="M154 764 c9 -8 16 -20 16 -25 0 -5 5 -9 10 -9 6 0 3 11 -6 25 -9 14
-21 25 -26 25 -5 0 -2 -7 6 -16z"/>
<path d="M2560 740 c-12 -7 -10 -9 7 -7 12 0 19 5 17 9 -6 10 -6 10 -24 -2z"/>
<path d="M2495 691 c-3 -5 -1 -12 5 -16 5 -3 10 1 10 9 0 18 -6 21 -15 7z"/>
<path d="M2595 477 c-15 -12 -16 -15 -4 -22 8 -5 10 -4 6 0 -4 5 3 15 15 22
13 7 18 12 12 13 -5 0 -18 -6 -29 -13z"/>
<path d="M695 420 c-3 -5 -1 -10 4 -10 6 0 11 5 11 10 0 6 -2 10 -4 10 -3 0
-8 -4 -11 -10z"/>
<path d="M2251 407 c-13 -21 -12 -21 5 -5 10 10 16 20 13 22 -3 3 -11 -5 -18
-17z"/>
<path d="M890 396 c0 -2 8 -10 18 -17 15 -13 16 -12 3 4 -13 16 -21 21 -21 13z"/>
<path d="M1455 350 c-3 -5 -1 -10 4 -10 6 0 11 5 11 10 0 6 -2 10 -4 10 -3 0
-8 -4 -11 -10z"/>
<path d="M2350 259 c0 -5 5 -7 10 -4 6 3 10 8 10 11 0 2 -4 4 -10 4 -5 0 -10
-5 -10 -11z"/>
<path d="M1885 240 c-3 -6 1 -7 9 -4 18 7 21 14 7 14 -6 0 -13 -4 -16 -10z"/>
<path d="M935 149 c-4 -6 2 -13 14 -16 12 -3 21 -10 21 -15 0 -6 -7 -8 -15 -4
-22 8 -18 -2 6 -15 15 -8 19 -8 15 0 -4 6 -2 11 5 11 8 0 8 4 -1 15 -7 8 -19
15 -27 15 -8 0 -11 5 -8 10 3 6 4 10 1 10 -3 0 -8 -5 -11 -11z"/>
<path d="M999 148 c-1 -2 -3 -13 -4 -26 -2 -17 2 -22 12 -18 8 3 17 6 19 6 2
0 4 5 4 10 0 6 -7 10 -16 10 -8 0 -12 5 -9 10 3 6 4 10 1 10 -3 0 -7 -1 -7 -2z"/>
<path d="M1415 140 c3 -5 8 -10 11 -10 2 0 4 5 4 10 0 6 -5 10 -11 10 -5 0 -7
-4 -4 -10z"/>
<path d="M910 120 c0 -5 5 -10 10 -10 6 0 10 5 10 10 0 6 -4 10 -10 10 -5 0
-10 -4 -10 -10z"/>
<path d="M1939 73 c-12 -16 -12 -17 2 -6 9 7 19 10 22 6 4 -3 7 -1 7 5 0 17
-16 15 -31 -5z"/>
</g>
</svg>
